{
    "asset" : {
        "generator" : "Khronos glTF Blender I/O v1.8.19",
        "version" : "2.0"
    },
    "scene" : 0,
    "scenes" : [
        {
            "name" : "Scene",
            "nodes" : [
                6
            ]
        }
    ],
    "nodes" : [
        {
            "name" : "Bone",
            "scale" : [
                0.18216609954833984,
                0.18216609954833984,
                0.18216609954833984
            ]
        },
        {
            "mesh" : 0,
            "name" : "Button2",
            "skin" : 0
        },
        {
            "children" : [
                1,
                0
            ],
            "name" : "AnimatedButton2_Armature",
            "translation" : [
                -5.746100425720215,
                2.3555877208709717,
                1.584632396697998
            ]
        },
        {
            "name" : "Bone",
            "scale" : [
                0.10775214433670044,
                0.10775214433670044,
                0.10775214433670044
            ]
        },
        {
            "mesh" : 1,
            "name" : "Button1",
            "skin" : 1
        },
        {
            "children" : [
                4,
                3
            ],
            "name" : "AnimatedButton_Armature",
            "translation" : [
                -5.5624237060546875,
                2.500368118286133,
                -2.6121420860290527
            ]
        },
        {
            "children" : [
                2,
                5
            ],
            "name" : "Parent"
        }
    ],
    "animations" : [
        {
            "channels" : [
                {
                    "sampler" : 0,
                    "target" : {
                        "node" : 3,
                        "path" : "translation"
                    }
                },
                {
                    "sampler" : 1,
                    "target" : {
                        "node" : 3,
                        "path" : "rotation"
                    }
                },
                {
                    "sampler" : 2,
                    "target" : {
                        "node" : 3,
                        "path" : "scale"
                    }
                }
            ],
            "name" : "Popin",
            "samplers" : [
                {
                    "input" : 13,
                    "interpolation" : "LINEAR",
                    "output" : 14
                },
                {
                    "input" : 15,
                    "interpolation" : "LINEAR",
                    "output" : 16
                },
                {
                    "input" : 13,
                    "interpolation" : "LINEAR",
                    "output" : 17
                }
            ]
        },
        {
            "channels" : [
                {
                    "sampler" : 0,
                    "target" : {
                        "node" : 0,
                        "path" : "translation"
                    }
                },
                {
                    "sampler" : 1,
                    "target" : {
                        "node" : 0,
                        "path" : "rotation"
                    }
                },
                {
                    "sampler" : 2,
                    "target" : {
                        "node" : 0,
                        "path" : "scale"
                    }
                }
            ],
            "name" : "Popin2",
            "samplers" : [
                {
                    "input" : 18,
                    "interpolation" : "LINEAR",
                    "output" : 19
                },
                {
                    "input" : 18,
                    "interpolation" : "LINEAR",
                    "output" : 20
                },
                {
                    "input" : 21,
                    "interpolation" : "LINEAR",
                    "output" : 22
                }
            ]
        }
    ],
    "meshes" : [
        {
            "name" : "Plane.001",
            "primitives" : [
                {
                    "attributes" : {
                        "POSITION" : 0,
                        "NORMAL" : 1,
                        "TEXCOORD_0" : 2,
                        "JOINTS_0" : 3,
                        "WEIGHTS_0" : 4
                    },
                    "indices" : 5
                }
            ]
        },
        {
            "name" : "Plane",
            "primitives" : [
                {
                    "attributes" : {
                        "POSITION" : 7,
                        "NORMAL" : 8,
                        "TEXCOORD_0" : 9,
                        "JOINTS_0" : 10,
                        "WEIGHTS_0" : 11
                    },
                    "indices" : 5
                }
            ]
        }
    ],
    "skins" : [
        {
            "inverseBindMatrices" : 6,
            "joints" : [
                0
            ],
            "name" : "AnimatedButton2_Armature"
        },
        {
            "inverseBindMatrices" : 12,
            "joints" : [
                3
            ],
            "name" : "AnimatedButton_Armature"
        }
    ],
    "accessors" : [
        {
            "bufferView" : 0,
            "componentType" : 5126,
            "count" : 4,
            "max" : [
                -5.746100425720215,
                3.3555877208709717,
                2.584632396697998
            ],
            "min" : [
                -5.746100425720215,
                1.3555877208709717,
                0.584632396697998
            ],
            "type" : "VEC3"
        },
        {
            "bufferView" : 1,
            "componentType" : 5126,
            "count" : 4,
            "type" : "VEC3"
        },
        {
            "bufferView" : 2,
            "componentType" : 5126,
            "count" : 4,
            "type" : "VEC2"
        },
        {
            "bufferView" : 3,
            "componentType" : 5121,
            "count" : 4,
            "type" : "VEC4"
        },
        {
            "bufferView" : 4,
            "componentType" : 5126,
            "count" : 4,
            "type" : "VEC4"
        },
        {
            "bufferView" : 5,
            "componentType" : 5123,
            "count" : 6,
            "type" : "SCALAR"
        },
        {
            "bufferView" : 6,
            "componentType" : 5126,
            "count" : 1,
            "type" : "MAT4"
        },
        {
            "bufferView" : 7,
            "componentType" : 5126,
            "count" : 4,
            "max" : [
                -5.5624237060546875,
                3.500368118286133,
                -1.6121420860290527
            ],
            "min" : [
                -5.5624237060546875,
                1.5003681182861328,
                -3.6121420860290527
            ],
            "type" : "VEC3"
        },
        {
            "bufferView" : 8,
            "componentType" : 5126,
            "count" : 4,
            "type" : "VEC3"
        },
        {
            "bufferView" : 9,
            "componentType" : 5126,
            "count" : 4,
            "type" : "VEC2"
        },
        {
            "bufferView" : 10,
            "componentType" : 5121,
            "count" : 4,
            "type" : "VEC4"
        },
        {
            "bufferView" : 11,
            "componentType" : 5126,
            "count" : 4,
            "type" : "VEC4"
        },
        {
            "bufferView" : 12,
            "componentType" : 5126,
            "count" : 1,
            "type" : "MAT4"
        },
        {
            "bufferView" : 13,
            "componentType" : 5126,
            "count" : 81,
            "max" : [
                3.3333333333333335
            ],
            "min" : [
                0
            ],
            "type" : "SCALAR"
        },
        {
            "bufferView" : 14,
            "componentType" : 5126,
            "count" : 81,
            "type" : "VEC3"
        },
        {
            "bufferView" : 15,
            "componentType" : 5126,
            "count" : 2,
            "max" : [
                3.3333333333333335
            ],
            "min" : [
                0
            ],
            "type" : "SCALAR"
        },
        {
            "bufferView" : 16,
            "componentType" : 5126,
            "count" : 2,
            "type" : "VEC4"
        },
        {
            "bufferView" : 17,
            "componentType" : 5126,
            "count" : 81,
            "type" : "VEC3"
        },
        {
            "bufferView" : 18,
            "componentType" : 5126,
            "count" : 2,
            "max" : [
                4.166666666666667
            ],
            "min" : [
                0
            ],
            "type" : "SCALAR"
        },
        {
            "bufferView" : 19,
            "componentType" : 5126,
            "count" : 2,
            "type" : "VEC3"
        },
        {
            "bufferView" : 20,
            "componentType" : 5126,
            "count" : 2,
            "type" : "VEC4"
        },
        {
            "bufferView" : 21,
            "componentType" : 5126,
            "count" : 101,
            "max" : [
                4.166666666666667
            ],
            "min" : [
                0
            ],
            "type" : "SCALAR"
        },
        {
            "bufferView" : 22,
            "componentType" : 5126,
            "count" : 101,
            "type" : "VEC3"
        }
    ],
    "bufferViews" : [
        {
            "buffer" : 0,
            "byteLength" : 48,
            "byteOffset" : 0
        },
        {
            "buffer" : 0,
            "byteLength" : 48,
            "byteOffset" : 48
        },
        {
            "buffer" : 0,
            "byteLength" : 32,
            "byteOffset" : 96
        },
        {
            "buffer" : 0,
            "byteLength" : 16,
            "byteOffset" : 128
        },
        {
            "buffer" : 0,
            "byteLength" : 64,
            "byteOffset" : 144
        },
        {
            "buffer" : 0,
            "byteLength" : 12,
            "byteOffset" : 208
        },
        {
            "buffer" : 0,
            "byteLength" : 64,
            "byteOffset" : 220
        },
        {
            "buffer" : 0,
            "byteLength" : 48,
            "byteOffset" : 284
        },
        {
            "buffer" : 0,
            "byteLength" : 48,
            "byteOffset" : 332
        },
        {
            "buffer" : 0,
            "byteLength" : 32,
            "byteOffset" : 380
        },
        {
            "buffer" : 0,
            "byteLength" : 16,
            "byteOffset" : 412
        },
        {
            "buffer" : 0,
            "byteLength" : 64,
            "byteOffset" : 428
        },
        {
            "buffer" : 0,
            "byteLength" : 64,
            "byteOffset" : 492
        },
        {
            "buffer" : 0,
            "byteLength" : 324,
            "byteOffset" : 556
        },
        {
            "buffer" : 0,
            "byteLength" : 972,
            "byteOffset" : 880
        },
        {
            "buffer" : 0,
            "byteLength" : 8,
            "byteOffset" : 1852
        },
        {
            "buffer" : 0,
            "byteLength" : 32,
            "byteOffset" : 1860
        },
        {
            "buffer" : 0,
            "byteLength" : 972,
            "byteOffset" : 1892
        },
        {
            "buffer" : 0,
            "byteLength" : 8,
            "byteOffset" : 2864
        },
        {
            "buffer" : 0,
            "byteLength" : 24,
            "byteOffset" : 2872
        },
        {
            "buffer" : 0,
            "byteLength" : 32,
            "byteOffset" : 2896
        },
        {
            "buffer" : 0,
            "byteLength" : 404,
            "byteOffset" : 2928
        },
        {
            "buffer" : 0,
            "byteLength" : 1212,
            "byteOffset" : 3332
        }
    ],
    "buffers" : [
        {
            "byteLength" : 4544,
            "uri" : "data:application/octet-stream;base64,"
        }
    ]
}
